;TYPE=PLATED
;Layer: PTH_Through
;EasyEDA Pro v2.2.47.7, 2026-05-26 11:49:50
;Gerber Generator version 0.3
M48
METRIC,LZ,0000.00000
;Hole size 1 = 0.70002 METRIC
T01C0.70002
;Hole size 2 = 0.89916 METRIC
T02C0.89916
;Hole size 3 = 0.90002 METRIC
T03C0.90002
;Hole size 4 = 0.91440 METRIC
T04C0.91440
;Hole size 5 = 1.00000 METRIC
T05C1.00000
;Hole size 6 = 1.02000 METRIC
T06C1.02000
%
G05
G90
T01
X66.786Y-58.039
X64.786Y-58.039
X65.516Y-17.526
X63.516Y-17.526
T02
X7.04645Y-25.77445
X17.20645Y-25.77445
X31.25321Y-12.77714
X31.25321Y-2.61714
X42.15121Y-58.039
X52.31121Y-58.039
X61.20134Y-28.77914
X71.36134Y-28.77914
X63.76521Y-41.47579
X73.92521Y-41.47579
X63.76521Y-36.39914
X73.92521Y-36.39914
X23.12521Y-35.89114
X33.28521Y-35.89114
X71.36134Y-7.44314
X61.20134Y-7.44314
X25.15721Y-2.61714
X25.15721Y-12.77714
X23.0544Y-18.17998
X33.2144Y-18.17998
T03
X57.64521Y-60.579
X57.64521Y-58.039
T04
X23.12521Y-40.33614
X23.12521Y-42.87614
X86.78345Y-57.93899
X86.78345Y-62.93898
X77.78347Y-62.93898
X77.78296Y-57.93848
X86.79625Y-17.56626
X86.79625Y-22.56625
X77.79626Y-22.56625
X77.79576Y-17.56575
T05
X2.47445Y-25.77445
X2.47445Y-28.31445
X2.60143Y-18.17998
X2.60143Y-15.63998
X91.93073Y-41.47914
X91.93073Y-44.01914
X91.93073Y-34.74814
X91.93073Y-37.28814
X92.329Y-59.309
X92.329Y-61.849
X92.329Y-18.796
X92.329Y-21.336
X19.31521Y-18.23814
X19.31521Y-15.69814
X11.69521Y-18.23814
X11.69521Y-15.69814
X21.72483Y-25.84913
X21.72483Y-28.38913
X29.34483Y-25.84913
X29.34483Y-28.38913
X78.87821Y-41.47914
X78.87821Y-44.01914
X86.49821Y-41.47914
X86.49821Y-44.01914
X78.87821Y-34.74814
X78.87821Y-37.28814
X86.49821Y-34.74814
X86.49821Y-37.28814
T06
X38.735Y-5.96899
X38.735Y-13.58898
X38.735Y-3.429
X38.735Y-16.12897
X38.735Y-8.50899
X38.735Y-18.66897
X38.735Y-11.04898
X38.735Y-21.20896
X38.735Y-23.74896
X38.735Y-26.28895
X38.735Y-28.82895
X38.735Y-31.36894
X38.735Y-33.90894
X38.735Y-36.44893
X38.735Y-38.98893
X38.735Y-41.52892
X38.735Y-44.06892
X38.735Y-46.60891
X38.735Y-49.14891
X38.735Y-51.6889
X56.51496Y-51.6889
X56.51496Y-49.14891
X56.51496Y-46.60891
X56.51496Y-44.06892
X56.51496Y-41.52892
X56.51496Y-38.98893
X56.51496Y-36.44893
X56.51496Y-33.90894
X56.51496Y-31.36894
X56.51496Y-28.82895
X56.51496Y-26.28895
X56.51496Y-23.74896
X56.51496Y-21.20896
X56.51496Y-18.66897
X56.51496Y-16.12897
X56.51496Y-13.58898
X56.51496Y-11.04898
X56.51496Y-8.50899
X56.51496Y-5.96899
X56.51496Y-3.429
X43.815Y-51.689
X46.355Y-51.689
X48.895Y-51.689
X51.435Y-51.689
M30