G04 Layer: TopLayer*
G04 EasyEDA Pro v2.2.47.7, 2026-05-26 11:49:50*
G04 Gerber Generator version 0.3*
G04 Scale: 100 percent, Rotated: No, Reflected: No*
G04 Dimensions in millimeters*
G04 Leading zeros omitted, absolute positions, 4 integers and 5 decimals*
G04 Generated by one-click*
G04 Object Configs: Pad,Via,Track,Text,Image,Dimension,BoardOutline,BoardCutout,CopperFilled,SolidRegion,FPCStiffener,Line,PlaneZone,ComponentProperty,ComponentSilkscreen,TearDrop*
G04 Layer Configs: 1,2,3,4,5,6,7,8,9,10,11,13,14,56*
G04 Copper Areas: 0*
%FSLAX45Y45*%
%MOMM*%
%ADD10R,1.7X1.7*%
%ADD11C,1.7*%
%ADD12C,1.524*%
%ADD13C,1.8796*%
%ADD14R,1.524X1.524*%
%ADD15O,2.0X1.524*%
%ADD16C,1.1092*%
%ADD17C,1.1*%
G75*


G04 Pad Start*
G54D10*
G01X247445Y-2577445D03*
G54D11*
G01X247445Y-2831445D03*
G54D10*
G01X260143Y-1817998D03*
G54D11*
G01X260143Y-1563998D03*
G54D10*
G01X9193073Y-4147914D03*
G54D11*
G01X9193073Y-4401914D03*
G54D10*
G01X9193073Y-3474814D03*
G54D11*
G01X9193073Y-3728814D03*
G54D10*
G01X9232900Y-5930900D03*
G54D11*
G01X9232900Y-6184900D03*
G54D10*
G01X9232900Y-1879600D03*
G54D11*
G01X9232900Y-2133600D03*
G54D12*
G01X2312521Y-4033614D03*
G01X2312521Y-4287614D03*
G54D13*
G01X704645Y-2577445D03*
G01X1720645Y-2577445D03*
G01X3125321Y-1277714D03*
G01X3125321Y-261714D03*
G01X4215121Y-5803900D03*
G01X5231121Y-5803900D03*
G01X6120134Y-2877914D03*
G01X7136134Y-2877914D03*
G01X6376521Y-4147579D03*
G01X7392521Y-4147579D03*
G01X6376521Y-3639914D03*
G01X7392521Y-3639914D03*
G54D11*
G01X5764521Y-6057900D03*
G01X5764521Y-5803900D03*
G54D13*
G01X2312521Y-3589114D03*
G01X3328521Y-3589114D03*
G01X7136134Y-744314D03*
G01X6120134Y-744314D03*
G01X2515721Y-261714D03*
G01X2515721Y-1277714D03*
G01X2305440Y-1817998D03*
G01X3321440Y-1817998D03*
G54D12*
G01X8678333Y-5793886D03*
G01X8678333Y-6293885D03*
G01X7778334Y-6293885D03*
G54D14*
G01X7778309Y-5793861D03*
G54D12*
G01X8679612Y-1756613D03*
G01X8679612Y-2256612D03*
G01X7779614Y-2256612D03*
G54D14*
G01X7779588Y-1756588D03*
G54D11*
G01X3873500Y-596899D03*
G54D10*
G01X3873500Y-1358898D03*
G54D11*
G01X3873500Y-342900D03*
G01X3873500Y-1612897D03*
G01X3873500Y-850899D03*
G01X3873500Y-1866897D03*
G01X3873500Y-1104898D03*
G01X3873500Y-2120896D03*
G01X3873500Y-2374896D03*
G01X3873500Y-2628895D03*
G01X3873500Y-2882895D03*
G01X3873500Y-3136894D03*
G01X3873500Y-3390894D03*
G01X3873500Y-3644893D03*
G54D10*
G01X3873500Y-3898893D03*
G54D11*
G01X3873500Y-4152892D03*
G01X3873500Y-4406892D03*
G01X3873500Y-4660891D03*
G01X3873500Y-4914891D03*
G01X3873500Y-5168890D03*
G01X5651496Y-5168890D03*
G01X5651496Y-4914891D03*
G01X5651496Y-4660891D03*
G01X5651496Y-4406892D03*
G01X5651496Y-4152892D03*
G01X5651496Y-3898893D03*
G01X5651496Y-3644893D03*
G01X5651496Y-3390894D03*
G54D10*
G01X5651496Y-3136894D03*
G54D11*
G01X5651496Y-2882895D03*
G01X5651496Y-2628895D03*
G01X5651496Y-2374896D03*
G01X5651496Y-2120896D03*
G01X5651496Y-1866897D03*
G54D10*
G01X5651496Y-1612897D03*
G54D11*
G01X5651496Y-1358898D03*
G01X5651496Y-1104898D03*
G54D10*
G01X5651496Y-850899D03*
G54D11*
G01X5651496Y-596899D03*
G01X5651496Y-342900D03*
G01X4381500Y-5168900D03*
G01X4635500Y-5168900D03*
G54D10*
G01X4889500Y-5168900D03*
G54D11*
G01X5143500Y-5168900D03*
G54D15*
G01X1931521Y-1823814D03*
G01X1931521Y-1569814D03*
G01X1169521Y-1823814D03*
G01X1169521Y-1569814D03*
G01X2172483Y-2584913D03*
G01X2172483Y-2838913D03*
G01X2934483Y-2584913D03*
G01X2934483Y-2838913D03*
G01X7887821Y-4147914D03*
G01X7887821Y-4401914D03*
G01X8649821Y-4147914D03*
G01X8649821Y-4401914D03*
G01X7887821Y-3474814D03*
G01X7887821Y-3728814D03*
G01X8649821Y-3474814D03*
G01X8649821Y-3728814D03*
G54D17*
G01X6678600Y-5803900D03*
G01X6478600Y-5803900D03*
G01X6551600Y-1752600D03*
G01X6351600Y-1752600D03*
G04 Pad End*

M02*

