G04 Layer: BottomLayer*
G04 EasyEDA Pro v2.2.47.7, 2026-05-26 11:49:50*
G04 Gerber Generator version 0.3*
G04 Scale: 100 percent, Rotated: No, Reflected: No*
G04 Dimensions in millimeters*
G04 Leading zeros omitted, absolute positions, 4 integers and 5 decimals*
G04 Generated by one-click*
G04 Object Configs: Pad,Via,Track,Text,Image,Dimension,BoardOutline,BoardCutout,CopperFilled,SolidRegion,FPCStiffener,Line,PlaneZone,ComponentProperty,ComponentSilkscreen,TearDrop*
G04 Layer Configs: 1,2,3,4,5,6,7,8,9,10,11,13,14,56*
G04 Copper Areas: 0*
%FSLAX45Y45*%
%MOMM*%
%ADD10R,1.7X1.7*%
%ADD11C,1.7*%
%ADD12C,1.524*%
%ADD13C,1.8796*%
%ADD14R,1.524X1.524*%
%ADD15O,2.0X1.524*%
%ADD16C,1.1*%
%ADD17C,1.0054*%
%ADD18C,1.0*%
G75*


G04 Pad Start*
G54D10*
G01X247445Y-2577445D03*
G54D11*
G01X247445Y-2831445D03*
G54D10*
G01X260143Y-1817998D03*
G54D11*
G01X260143Y-1563998D03*
G54D10*
G01X9193073Y-4147914D03*
G54D11*
G01X9193073Y-4401914D03*
G54D10*
G01X9193073Y-3474814D03*
G54D11*
G01X9193073Y-3728814D03*
G54D10*
G01X9232900Y-5930900D03*
G54D11*
G01X9232900Y-6184900D03*
G54D10*
G01X9232900Y-1879600D03*
G54D11*
G01X9232900Y-2133600D03*
G54D12*
G01X2312521Y-4033614D03*
G01X2312521Y-4287614D03*
G54D13*
G01X704645Y-2577445D03*
G01X1720645Y-2577445D03*
G01X3125321Y-1277714D03*
G01X3125321Y-261714D03*
G01X4215121Y-5803900D03*
G01X5231121Y-5803900D03*
G01X6120134Y-2877914D03*
G01X7136134Y-2877914D03*
G01X6376521Y-4147579D03*
G01X7392521Y-4147579D03*
G01X6376521Y-3639914D03*
G01X7392521Y-3639914D03*
G54D11*
G01X5764521Y-6057900D03*
G01X5764521Y-5803900D03*
G54D13*
G01X2312521Y-3589114D03*
G01X3328521Y-3589114D03*
G01X7136134Y-744314D03*
G01X6120134Y-744314D03*
G01X2515721Y-261714D03*
G01X2515721Y-1277714D03*
G01X2305440Y-1817998D03*
G01X3321440Y-1817998D03*
G54D12*
G01X8678333Y-5793886D03*
G01X8678333Y-6293885D03*
G01X7778334Y-6293885D03*
G54D14*
G01X7778309Y-5793861D03*
G54D12*
G01X8679612Y-1756613D03*
G01X8679612Y-2256612D03*
G01X7779614Y-2256612D03*
G54D14*
G01X7779588Y-1756588D03*
G54D11*
G01X3873500Y-596899D03*
G54D10*
G01X3873500Y-1358898D03*
G54D11*
G01X3873500Y-342900D03*
G01X3873500Y-1612897D03*
G01X3873500Y-850899D03*
G01X3873500Y-1866897D03*
G01X3873500Y-1104898D03*
G01X3873500Y-2120896D03*
G01X3873500Y-2374896D03*
G01X3873500Y-2628895D03*
G01X3873500Y-2882895D03*
G01X3873500Y-3136894D03*
G01X3873500Y-3390894D03*
G01X3873500Y-3644893D03*
G54D10*
G01X3873500Y-3898893D03*
G54D11*
G01X3873500Y-4152892D03*
G01X3873500Y-4406892D03*
G01X3873500Y-4660891D03*
G01X3873500Y-4914891D03*
G01X3873500Y-5168890D03*
G01X5651496Y-5168890D03*
G01X5651496Y-4914891D03*
G01X5651496Y-4660891D03*
G01X5651496Y-4406892D03*
G01X5651496Y-4152892D03*
G01X5651496Y-3898893D03*
G01X5651496Y-3644893D03*
G01X5651496Y-3390894D03*
G54D10*
G01X5651496Y-3136894D03*
G54D11*
G01X5651496Y-2882895D03*
G01X5651496Y-2628895D03*
G01X5651496Y-2374896D03*
G01X5651496Y-2120896D03*
G01X5651496Y-1866897D03*
G54D10*
G01X5651496Y-1612897D03*
G54D11*
G01X5651496Y-1358898D03*
G01X5651496Y-1104898D03*
G54D10*
G01X5651496Y-850899D03*
G54D11*
G01X5651496Y-596899D03*
G01X5651496Y-342900D03*
G01X4381500Y-5168900D03*
G01X4635500Y-5168900D03*
G54D10*
G01X4889500Y-5168900D03*
G54D11*
G01X5143500Y-5168900D03*
G54D15*
G01X1931521Y-1823814D03*
G01X1931521Y-1569814D03*
G01X1169521Y-1823814D03*
G01X1169521Y-1569814D03*
G01X2172483Y-2584913D03*
G01X2172483Y-2838913D03*
G01X2934483Y-2584913D03*
G01X2934483Y-2838913D03*
G01X7887821Y-4147914D03*
G01X7887821Y-4401914D03*
G01X8649821Y-4147914D03*
G01X8649821Y-4401914D03*
G01X7887821Y-3474814D03*
G01X7887821Y-3728814D03*
G01X8649821Y-3474814D03*
G01X8649821Y-3728814D03*
G54D16*
G01X6678600Y-5803900D03*
G01X6478600Y-5803900D03*
G01X6551600Y-1752600D03*
G01X6351600Y-1752600D03*
G04 Pad End*

G04 Track Start*
G54D18*
G01X4215120Y-5803900D02*
G01X4507221Y-5511800D01*
G01X5308587Y-5511800D02*
G01X5651496Y-5168890D01*
G01X7778334Y-6293885D02*
G01X6000506Y-6293885D01*
G01X7887821Y-3728814D02*
G01X7917086Y-3728814D01*
G01X6120134Y-744314D02*
G01X6120134Y-890261D01*
G01X5651496Y-1358898D01*
G01X2515721Y-261714D02*
G01X3125321Y-261714D01*
G01X3307036Y-80000D01*
G01X5922000Y-80000D01*
G01X6120134Y-278134D01*
G01X6120134Y-744314D01*
G01X6000506Y-6293885D02*
G01X5764521Y-6057900D01*
G01X7778334Y-6293885D02*
G01X8128000Y-5944220D01*
G01X4507221Y-5511800D02*
G01X5308587Y-5511800D01*
G01X6478600Y-5803900D02*
G01X5764521Y-5803900D01*
G01X5231121Y-5803900D02*
G01X5764521Y-5803900D01*
G01X3328521Y-3589114D02*
G01X3817721Y-3589114D01*
G01X3873500Y-3644893D01*
G01X3873500Y-3898893D02*
G01X3484778Y-4287614D01*
G01X3125321Y-1277714D02*
G01X3714504Y-1866897D01*
G01X3873500Y-1866897D01*
G01X3155484Y-2584913D01*
G01X2934483Y-2584913D01*
G01X3389116Y-874514D02*
G01X3873500Y-1358898D01*
G01X3075186Y-874514D02*
G01X3389116Y-874514D01*
G01X3065651Y-1814944D02*
G01X2819400Y-1549400D01*
G01X2819400Y-1130300D01*
G01X3075186Y-874514D01*
G01X1169521Y-1569814D02*
G01X265959Y-1569814D01*
G01X260143Y-1563998D01*
G01X260143Y-1817998D02*
G01X1163705Y-1817998D01*
G01X1169521Y-1823814D01*
G01X247445Y-2577445D02*
G01X704645Y-2577445D01*
G01X1720645Y-2577445D02*
G01X2165015Y-2577445D01*
G01X2172483Y-2584913D01*
G01X2172483Y-2838913D02*
G01X254913Y-2838913D01*
G01X247445Y-2831445D01*
G01X1931521Y-1823814D02*
G01X2286923Y-1823814D01*
G01X2305440Y-1805298D01*
G01X3065651Y-1814944D02*
G01X3311793Y-1814944D01*
G01X3321440Y-1805298D01*
G01X2515720Y-1277714D02*
G01X3052950Y-1814944D01*
G01X3065651Y-1814944D01*
G01X1569189Y-1988289D02*
G01X1790700Y-2209800D01*
G01X2171700Y-2209800D01*
G01X2806700Y-2844800D01*
G01X2928596Y-2844800D01*
G01X1931521Y-1569814D02*
G01X1732186Y-1569814D01*
G01X1569189Y-1732811D01*
G01X1569189Y-1988289D01*
G01X6120134Y-2877914D02*
G01X5656477Y-2877914D01*
G01X5651496Y-2882895D01*
G01X6376521Y-4198379D02*
G01X6331035Y-4152892D01*
G01X5651496Y-4152892D01*
G01X5651496Y-3644893D02*
G01X6371542Y-3644893D01*
G01X6376521Y-3639914D01*
G01X7887821Y-3474814D02*
G01X7557621Y-3474814D01*
G01X7392521Y-3639914D01*
G01X7887821Y-4147914D02*
G01X7887486Y-4147579D01*
G01X7392521Y-4147579D01*
G01X7917086Y-4401914D02*
G01X8115300Y-4203700D01*
G01X8115300Y-3911600D01*
G01X7932514Y-3728814D01*
G01X7917086Y-3728814D01*
G01X8128000Y-5944220D02*
G01X8128000Y-4622800D01*
G01X7907114Y-4401914D01*
G01X7887821Y-4401914D02*
G01X7907114Y-4401914D01*
G01X7917086Y-4401914D01*
G01X6678600Y-5803900D02*
G01X7768270Y-5803900D01*
G01X7778309Y-5793861D01*
G01X7136133Y-744314D02*
G01X6351600Y-1528846D01*
G01X6351600Y-1752600D01*
G01X6551600Y-1752600D02*
G01X7753907Y-1752600D01*
G01X7778309Y-1777002D01*
G01X9231173Y-1864314D02*
G01X9231173Y-1856456D01*
G01X9131330Y-1756613D01*
G01X8679612Y-1756613D01*
G01X8679612Y-2256612D02*
G01X9122588Y-2256612D01*
G01X9232900Y-2146300D01*
G01X8691033Y-6306585D02*
G01X9096787Y-6306585D01*
G01X9231173Y-6172200D01*
G01X8678332Y-6293886D02*
G01X8691033Y-6306585D01*
G01X9231173Y-6172200D02*
G01X9231173Y-6146800D01*
G01X8691033Y-5806586D02*
G01X8678332Y-5793887D01*
G01X9232900Y-5930900D02*
G01X9108586Y-5806586D01*
G01X8691033Y-5806586D01*
G01X6351600Y-1752600D02*
G01X6121400Y-1982800D01*
G01X6121400Y-2501900D01*
G01X6120134Y-2503166D01*
G01X6120134Y-2877914D01*
G01X8128000Y-3517900D02*
G01X7917086Y-3728814D01*
G01X8128000Y-2603500D02*
G01X8128000Y-3517900D01*
G01X7801527Y-2277027D02*
G01X8128000Y-2603500D01*
G01X7136134Y-2877914D02*
G01X7136134Y-2668266D01*
G01X7527373Y-2277027D01*
G01X7801527Y-2277027D01*
G01X8649821Y-3474814D02*
G01X9193073Y-3474814D01*
G01X9193073Y-3728814D02*
G01X8649821Y-3728814D01*
G01X9193073Y-4147914D02*
G01X8649821Y-4147914D01*
G01X9193073Y-4401914D02*
G01X8649821Y-4401914D01*
G01X2312521Y-3589114D02*
G01X2312521Y-4033614D01*
G01X2312521Y-4287614D02*
G01X2561785Y-4287614D01*
G01X5710521Y-6003900D02*
G01X3832200Y-6003900D01*
G01X5764521Y-6057900D02*
G01X5710521Y-6003900D01*
G01X2934482Y-2838912D02*
G01X2928595Y-2844800D01*
G01X2896382Y-2877012D01*
G01X3484778Y-4287614D02*
G01X2710086Y-4287614D01*
G01X2896382Y-2877012D02*
G01X2896382Y-4101318D01*
G01X2710086Y-4287614D01*
G01X2561785Y-4287614D02*
G01X2563927Y-4285473D01*
G01X2707944Y-4285473D01*
G01X2710086Y-4287614D01*
G01X2312521Y-4484221D02*
G01X2312521Y-4287614D01*
G01X3832200Y-6003900D02*
G01X2312521Y-4484221D01*
G01X5651497Y-850900D02*
G01X5464482Y-850900D01*
G01X4089407Y-3898893D02*
G01X3873500Y-3898893D01*
G01X5464482Y-850900D02*
G01X4826000Y-1489381D01*
G01X4826000Y-3162300D01*
G01X4089407Y-3898893D01*
G04 Track End*

M02*

