G04 Layer: TopSilkscreenLayer*
G04 EasyEDA Pro v2.2.47.7, 2026-05-26 11:49:50*
G04 Gerber Generator version 0.3*
G04 Scale: 100 percent, Rotated: No, Reflected: No*
G04 Dimensions in millimeters*
G04 Leading zeros omitted, absolute positions, 4 integers and 5 decimals*
G04 Generated by one-click*
G04 Object Configs: Pad,Via,Track,Text,Image,Dimension,BoardOutline,BoardCutout,CopperFilled,SolidRegion,FPCStiffener,Line,PlaneZone,ComponentProperty,ComponentSilkscreen,TearDrop*
G04 Layer Configs: 1,2,3,4,5,6,7,8,9,10,11,13,14,56*
G04 Copper Areas: 0*
%FSLAX45Y45*%
%MOMM*%
%ADD10C,0.1524*%
%ADD11C,0.2032*%
%ADD12C,0.15*%
%ADD13C,0.254*%
%ADD14C,0.12*%
%ADD15C,0.3070*%
%ADD16C,0.3*%
G75*


G04 Text Start*
G54D10*
G01X401320Y-2915666D02*
G01X401320Y-2980690D01*
G01X444754Y-2915666D02*
G01X444754Y-2980690D01*
G01X401320Y-2946654D02*
G01X444754Y-2946654D01*
G01X474980Y-2928112D02*
G01X481076Y-2924810D01*
G01X490220Y-2915666D01*
G01X490220Y-2980690D01*
G01X414020Y-1899666D02*
G01X414020Y-1964690D01*
G01X457454Y-1899666D02*
G01X457454Y-1964690D01*
G01X414020Y-1930654D02*
G01X457454Y-1930654D01*
G01X490728Y-1915160D02*
G01X490728Y-1912112D01*
G01X493776Y-1905762D01*
G01X496824Y-1902714D01*
G01X502920Y-1899666D01*
G01X515366Y-1899666D01*
G01X521716Y-1902714D01*
G01X524764Y-1905762D01*
G01X527812Y-1912112D01*
G01X527812Y-1918208D01*
G01X524764Y-1924304D01*
G01X518414Y-1933702D01*
G01X487680Y-1964690D01*
G01X530860Y-1964690D01*
G01X8923020Y-4249166D02*
G01X8923020Y-4314190D01*
G01X8966454Y-4249166D02*
G01X8966454Y-4314190D01*
G01X8923020Y-4280154D02*
G01X8966454Y-4280154D01*
G01X9002776Y-4249166D02*
G01X9036812Y-4249166D01*
G01X9018270Y-4273804D01*
G01X9027414Y-4273804D01*
G01X9033764Y-4276852D01*
G01X9036812Y-4280154D01*
G01X9039860Y-4289298D01*
G01X9039860Y-4295648D01*
G01X9036812Y-4304792D01*
G01X9030716Y-4311142D01*
G01X9021318Y-4314190D01*
G01X9011920Y-4314190D01*
G01X9002776Y-4311142D01*
G01X8999728Y-4307840D01*
G01X8996680Y-4301744D01*
G01X8961120Y-6027166D02*
G01X8961120Y-6092190D01*
G01X9004554Y-6027166D02*
G01X9004554Y-6092190D01*
G01X8961120Y-6058154D02*
G01X9004554Y-6058154D01*
G01X9071864Y-6027166D02*
G01X9040876Y-6027166D01*
G01X9037828Y-6054852D01*
G01X9040876Y-6051804D01*
G01X9050020Y-6048756D01*
G01X9059418Y-6048756D01*
G01X9068816Y-6051804D01*
G01X9074912Y-6058154D01*
G01X9077960Y-6067298D01*
G01X9077960Y-6073648D01*
G01X9074912Y-6082792D01*
G01X9068816Y-6089142D01*
G01X9059418Y-6092190D01*
G01X9050020Y-6092190D01*
G01X9040876Y-6089142D01*
G01X9037828Y-6085840D01*
G01X9034780Y-6079744D01*
G01X2062734Y-4071620D02*
G01X1997710Y-4071620D01*
G01X1997710Y-4071620D02*
G01X1997710Y-4108704D01*
G01X2062734Y-4138930D02*
G01X1997710Y-4138930D01*
G01X2062734Y-4138930D02*
G01X2062734Y-4179062D01*
G01X2031746Y-4138930D02*
G01X2031746Y-4163568D01*
G01X1997710Y-4138930D02*
G01X1997710Y-4179062D01*
G01X2062734Y-4209288D02*
G01X1997710Y-4209288D01*
G01X2062734Y-4209288D02*
G01X2062734Y-4230878D01*
G01X2059686Y-4240022D01*
G01X2053590Y-4246372D01*
G01X2047240Y-4249420D01*
G01X2038096Y-4252468D01*
G01X2022602Y-4252468D01*
G01X2013204Y-4249420D01*
G01X2007108Y-4246372D01*
G01X2000758Y-4240022D01*
G01X1997710Y-4230878D01*
G01X1997710Y-4209288D01*
G01X2050288Y-4282694D02*
G01X2053590Y-4288790D01*
G01X2062734Y-4297934D01*
G01X1997710Y-4297934D01*
G01X896620Y-2331466D02*
G01X896620Y-2396490D01*
G01X896620Y-2331466D02*
G01X924560Y-2331466D01*
G01X933704Y-2334514D01*
G01X936752Y-2337562D01*
G01X940054Y-2343912D01*
G01X940054Y-2350008D01*
G01X936752Y-2356104D01*
G01X933704Y-2359152D01*
G01X924560Y-2362454D01*
G01X896620Y-2362454D01*
G01X918210Y-2362454D02*
G01X940054Y-2396490D01*
G01X1013460Y-2331466D02*
G01X982472Y-2396490D01*
G01X970280Y-2331466D02*
G01X1013460Y-2331466D01*
G01X3271266Y-563880D02*
G01X3336290Y-563880D01*
G01X3271266Y-563880D02*
G01X3271266Y-535940D01*
G01X3274314Y-526796D01*
G01X3277362Y-523748D01*
G01X3283712Y-520446D01*
G01X3289808Y-520446D01*
G01X3295904Y-523748D01*
G01X3298952Y-526796D01*
G01X3302254Y-535940D01*
G01X3302254Y-563880D01*
G01X3302254Y-542290D02*
G01X3336290Y-520446D01*
G01X3271266Y-474980D02*
G01X3274314Y-484124D01*
G01X3280410Y-487172D01*
G01X3286760Y-487172D01*
G01X3292856Y-484124D01*
G01X3295904Y-478028D01*
G01X3298952Y-465582D01*
G01X3302254Y-456184D01*
G01X3308350Y-450088D01*
G01X3314446Y-447040D01*
G01X3323844Y-447040D01*
G01X3329940Y-450088D01*
G01X3333242Y-453136D01*
G01X3336290Y-462534D01*
G01X3336290Y-474980D01*
G01X3333242Y-484124D01*
G01X3329940Y-487172D01*
G01X3323844Y-490220D01*
G01X3314446Y-490220D01*
G01X3308350Y-487172D01*
G01X3302254Y-481076D01*
G01X3298952Y-471678D01*
G01X3295904Y-459486D01*
G01X3292856Y-453136D01*
G01X3286760Y-450088D01*
G01X3280410Y-450088D01*
G01X3274314Y-453136D01*
G01X3271266Y-462534D01*
G01X3271266Y-474980D01*
G01X4414520Y-5582666D02*
G01X4414520Y-5647690D01*
G01X4414520Y-5582666D02*
G01X4442460Y-5582666D01*
G01X4451604Y-5585714D01*
G01X4454652Y-5588762D01*
G01X4457954Y-5595112D01*
G01X4457954Y-5601208D01*
G01X4454652Y-5607304D01*
G01X4451604Y-5610352D01*
G01X4442460Y-5613654D01*
G01X4414520Y-5613654D01*
G01X4436110Y-5613654D02*
G01X4457954Y-5647690D01*
G01X4528312Y-5604256D02*
G01X4525264Y-5613654D01*
G01X4518914Y-5619750D01*
G01X4509770Y-5622798D01*
G01X4506722Y-5622798D01*
G01X4497324Y-5619750D01*
G01X4491228Y-5613654D01*
G01X4488180Y-5604256D01*
G01X4488180Y-5601208D01*
G01X4491228Y-5591810D01*
G01X4497324Y-5585714D01*
G01X4506722Y-5582666D01*
G01X4509770Y-5582666D01*
G01X4518914Y-5585714D01*
G01X4525264Y-5591810D01*
G01X4528312Y-5604256D01*
G01X4528312Y-5619750D01*
G01X4525264Y-5635244D01*
G01X4518914Y-5644642D01*
G01X4509770Y-5647690D01*
G01X4503420Y-5647690D01*
G01X4494276Y-5644642D01*
G01X4491228Y-5638292D01*
G01X6949447Y-3119563D02*
G01X6949447Y-3054539D01*
G01X6949447Y-3119563D02*
G01X6921507Y-3119563D01*
G01X6912363Y-3116515D01*
G01X6909315Y-3113467D01*
G01X6906013Y-3107117D01*
G01X6906013Y-3101021D01*
G01X6909315Y-3094925D01*
G01X6912363Y-3091877D01*
G01X6921507Y-3088575D01*
G01X6949447Y-3088575D01*
G01X6927857Y-3088575D02*
G01X6906013Y-3054539D01*
G01X6875787Y-3107117D02*
G01X6869691Y-3110419D01*
G01X6860547Y-3119563D01*
G01X6860547Y-3054539D01*
G01X6811779Y-3119563D02*
G01X6821177Y-3116515D01*
G01X6827273Y-3107117D01*
G01X6830321Y-3091877D01*
G01X6830321Y-3082479D01*
G01X6827273Y-3066985D01*
G01X6821177Y-3057587D01*
G01X6811779Y-3054539D01*
G01X6805683Y-3054539D01*
G01X6796285Y-3057587D01*
G01X6790189Y-3066985D01*
G01X6787141Y-3082479D01*
G01X6787141Y-3091877D01*
G01X6790189Y-3107117D01*
G01X6796285Y-3116515D01*
G01X6805683Y-3119563D01*
G01X6811779Y-3119563D01*
G01X6560820Y-3791966D02*
G01X6560820Y-3856990D01*
G01X6560820Y-3791966D02*
G01X6588760Y-3791966D01*
G01X6597904Y-3795014D01*
G01X6600952Y-3798062D01*
G01X6604254Y-3804412D01*
G01X6604254Y-3810508D01*
G01X6600952Y-3816604D01*
G01X6597904Y-3819652D01*
G01X6588760Y-3822954D01*
G01X6560820Y-3822954D01*
G01X6582410Y-3822954D02*
G01X6604254Y-3856990D01*
G01X6634480Y-3804412D02*
G01X6640576Y-3801110D01*
G01X6649720Y-3791966D01*
G01X6649720Y-3856990D01*
G01X6686042Y-3791966D02*
G01X6720078Y-3791966D01*
G01X6701536Y-3816604D01*
G01X6710680Y-3816604D01*
G01X6717030Y-3819652D01*
G01X6720078Y-3822954D01*
G01X6723126Y-3832098D01*
G01X6723126Y-3838448D01*
G01X6720078Y-3847592D01*
G01X6713982Y-3853942D01*
G01X6704584Y-3856990D01*
G01X6695186Y-3856990D01*
G01X6686042Y-3853942D01*
G01X6682994Y-3850640D01*
G01X6679946Y-3844544D01*
G01X5654802Y-6245860D02*
G01X5651754Y-6239510D01*
G01X5645404Y-6233414D01*
G01X5639308Y-6230366D01*
G01X5626862Y-6230366D01*
G01X5620766Y-6233414D01*
G01X5614416Y-6239510D01*
G01X5611368Y-6245860D01*
G01X5608320Y-6255004D01*
G01X5608320Y-6270498D01*
G01X5611368Y-6279896D01*
G01X5614416Y-6285992D01*
G01X5620766Y-6292342D01*
G01X5626862Y-6295390D01*
G01X5639308Y-6295390D01*
G01X5645404Y-6292342D01*
G01X5651754Y-6285992D01*
G01X5654802Y-6279896D01*
G01X5685028Y-6242812D02*
G01X5691124Y-6239510D01*
G01X5700268Y-6230366D01*
G01X5700268Y-6295390D01*
G01X5761228Y-6230366D02*
G01X5730494Y-6273546D01*
G01X5776722Y-6273546D01*
G01X5761228Y-6230366D02*
G01X5761228Y-6295390D01*
G01X2509520Y-3334766D02*
G01X2509520Y-3399790D01*
G01X2509520Y-3334766D02*
G01X2537460Y-3334766D01*
G01X2546604Y-3337814D01*
G01X2549652Y-3340862D01*
G01X2552954Y-3347212D01*
G01X2552954Y-3353308D01*
G01X2549652Y-3359404D01*
G01X2546604Y-3362452D01*
G01X2537460Y-3365754D01*
G01X2509520Y-3365754D01*
G01X2531110Y-3365754D02*
G01X2552954Y-3399790D01*
G01X2583180Y-3347212D02*
G01X2589276Y-3343910D01*
G01X2598420Y-3334766D01*
G01X2598420Y-3399790D01*
G01X2665730Y-3334766D02*
G01X2634742Y-3334766D01*
G01X2631694Y-3362452D01*
G01X2634742Y-3359404D01*
G01X2643886Y-3356356D01*
G01X2653284Y-3356356D01*
G01X2662682Y-3359404D01*
G01X2668778Y-3365754D01*
G01X2671826Y-3374898D01*
G01X2671826Y-3381248D01*
G01X2668778Y-3390392D01*
G01X2662682Y-3396742D01*
G01X2653284Y-3399790D01*
G01X2643886Y-3399790D01*
G01X2634742Y-3396742D01*
G01X2631694Y-3393440D01*
G01X2628646Y-3387344D01*
G01X2674366Y-614680D02*
G01X2739390Y-614680D01*
G01X2674366Y-614680D02*
G01X2674366Y-586740D01*
G01X2677414Y-577596D01*
G01X2680462Y-574548D01*
G01X2686812Y-571246D01*
G01X2692908Y-571246D01*
G01X2699004Y-574548D01*
G01X2702052Y-577596D01*
G01X2705354Y-586740D01*
G01X2705354Y-614680D01*
G01X2705354Y-593090D02*
G01X2739390Y-571246D01*
G01X2686812Y-541020D02*
G01X2683510Y-534924D01*
G01X2674366Y-525780D01*
G01X2739390Y-525780D01*
G01X2674366Y-452374D02*
G01X2739390Y-483362D01*
G01X2674366Y-495554D02*
G01X2674366Y-452374D01*
G54D11*
G01X7643683Y-5294925D02*
G01X7643683Y-5478059D01*
G01X7643683Y-5294925D02*
G01X7765857Y-5478059D01*
G01X7765857Y-5294925D02*
G01X7765857Y-5478059D01*
G01X7828087Y-5329723D02*
G01X7845613Y-5321087D01*
G01X7871775Y-5294925D01*
G01X7871775Y-5478059D01*
G01X8593693Y-5294925D02*
G01X8593693Y-5478059D01*
G01X8593693Y-5294925D02*
G01X8715867Y-5478059D01*
G01X8715867Y-5294925D02*
G01X8715867Y-5478059D01*
G01X8786733Y-5338613D02*
G01X8786733Y-5329723D01*
G01X8795623Y-5312451D01*
G01X8804259Y-5303561D01*
G01X8821785Y-5294925D01*
G01X8856583Y-5294925D01*
G01X8874109Y-5303561D01*
G01X8882745Y-5312451D01*
G01X8891635Y-5329723D01*
G01X8891635Y-5347249D01*
G01X8882745Y-5364775D01*
G01X8865473Y-5390937D01*
G01X8778097Y-5478059D01*
G01X8900271Y-5478059D01*
G54D10*
G01X7594830Y-5142865D02*
G01X7594830Y-5207889D01*
G01X7573240Y-5142865D02*
G01X7616674Y-5142865D01*
G01X7646900Y-5142865D02*
G01X7646900Y-5207889D01*
G01X7646900Y-5142865D02*
G01X7674586Y-5142865D01*
G01X7683984Y-5145913D01*
G01X7687032Y-5148961D01*
G01X7690080Y-5155311D01*
G01X7690080Y-5161407D01*
G01X7687032Y-5167503D01*
G01X7683984Y-5170551D01*
G01X7674586Y-5173853D01*
G01X7646900Y-5173853D01*
G01X7668490Y-5173853D02*
G01X7690080Y-5207889D01*
G01X7720306Y-5155311D02*
G01X7726402Y-5152009D01*
G01X7735546Y-5142865D01*
G01X7735546Y-5207889D01*
G54D11*
G01X7644962Y-1257652D02*
G01X7644962Y-1440786D01*
G01X7644962Y-1257652D02*
G01X7767136Y-1440786D01*
G01X7767136Y-1257652D02*
G01X7767136Y-1440786D01*
G01X7829366Y-1292450D02*
G01X7846892Y-1283814D01*
G01X7873054Y-1257652D01*
G01X7873054Y-1440786D01*
G01X8594973Y-1257652D02*
G01X8594973Y-1440786D01*
G01X8594973Y-1257652D02*
G01X8717147Y-1440786D01*
G01X8717147Y-1257652D02*
G01X8717147Y-1440786D01*
G01X8788013Y-1301340D02*
G01X8788013Y-1292450D01*
G01X8796903Y-1275178D01*
G01X8805539Y-1266288D01*
G01X8823065Y-1257652D01*
G01X8857863Y-1257652D01*
G01X8875389Y-1266288D01*
G01X8884025Y-1275178D01*
G01X8892915Y-1292450D01*
G01X8892915Y-1309976D01*
G01X8884025Y-1327502D01*
G01X8866753Y-1353664D01*
G01X8779377Y-1440786D01*
G01X8901551Y-1440786D01*
G54D10*
G01X7596109Y-1105592D02*
G01X7596109Y-1170616D01*
G01X7574519Y-1105592D02*
G01X7617953Y-1105592D01*
G01X7648179Y-1105592D02*
G01X7648179Y-1170616D01*
G01X7648179Y-1105592D02*
G01X7675865Y-1105592D01*
G01X7685263Y-1108640D01*
G01X7688311Y-1111688D01*
G01X7691359Y-1118038D01*
G01X7691359Y-1124134D01*
G01X7688311Y-1130230D01*
G01X7685263Y-1133278D01*
G01X7675865Y-1136580D01*
G01X7648179Y-1136580D01*
G01X7669769Y-1136580D02*
G01X7691359Y-1170616D01*
G01X7724633Y-1121086D02*
G01X7724633Y-1118038D01*
G01X7727681Y-1111688D01*
G01X7730729Y-1108640D01*
G01X7736825Y-1105592D01*
G01X7749271Y-1105592D01*
G01X7755621Y-1108640D01*
G01X7758669Y-1111688D01*
G01X7761717Y-1118038D01*
G01X7761717Y-1124134D01*
G01X7758669Y-1130230D01*
G01X7752319Y-1139628D01*
G01X7721585Y-1170616D01*
G01X7764765Y-1170616D01*
G01X3485943Y-207481D02*
G01X3485943Y-253963D01*
G01X3488991Y-263107D01*
G01X3495341Y-269457D01*
G01X3504485Y-272505D01*
G01X3510835Y-272505D01*
G01X3519979Y-269457D01*
G01X3526075Y-263107D01*
G01X3529377Y-253963D01*
G01X3529377Y-207481D01*
G01X3596687Y-207481D02*
G01X3565699Y-207481D01*
G01X3562651Y-235167D01*
G01X3565699Y-232119D01*
G01X3574843Y-229071D01*
G01X3584241Y-229071D01*
G01X3593639Y-232119D01*
G01X3599735Y-238469D01*
G01X3602783Y-247613D01*
G01X3602783Y-253963D01*
G01X3599735Y-263107D01*
G01X3593639Y-269457D01*
G01X3584241Y-272505D01*
G01X3574843Y-272505D01*
G01X3565699Y-269457D01*
G01X3562651Y-266155D01*
G01X3559603Y-260059D01*
G01X2306320Y-2979166D02*
G01X2306320Y-3025648D01*
G01X2309368Y-3034792D01*
G01X2315718Y-3041142D01*
G01X2324862Y-3044190D01*
G01X2331212Y-3044190D01*
G01X2340356Y-3041142D01*
G01X2346452Y-3034792D01*
G01X2349754Y-3025648D01*
G01X2349754Y-2979166D01*
G01X2379980Y-2991612D02*
G01X2386076Y-2988310D01*
G01X2395220Y-2979166D01*
G01X2395220Y-3044190D01*
G01X2443988Y-2979166D02*
G01X2434590Y-2982214D01*
G01X2428494Y-2991612D01*
G01X2425446Y-3006852D01*
G01X2425446Y-3016250D01*
G01X2428494Y-3031744D01*
G01X2434590Y-3041142D01*
G01X2443988Y-3044190D01*
G01X2450084Y-3044190D01*
G01X2459482Y-3041142D01*
G01X2465578Y-3031744D01*
G01X2468626Y-3016250D01*
G01X2468626Y-3006852D01*
G01X2465578Y-2991612D01*
G01X2459482Y-2982214D01*
G01X2450084Y-2979166D01*
G01X2443988Y-2979166D01*
G01X8389620Y-3944366D02*
G01X8389620Y-3990848D01*
G01X8392668Y-3999992D01*
G01X8399018Y-4006342D01*
G01X8408162Y-4009390D01*
G01X8414512Y-4009390D01*
G01X8423656Y-4006342D01*
G01X8429752Y-3999992D01*
G01X8433054Y-3990848D01*
G01X8433054Y-3944366D01*
G01X8463280Y-3956812D02*
G01X8469376Y-3953510D01*
G01X8478520Y-3944366D01*
G01X8478520Y-4009390D01*
G01X8508746Y-3956812D02*
G01X8514842Y-3953510D01*
G01X8523986Y-3944366D01*
G01X8523986Y-4009390D01*
G01X8364220Y-3258566D02*
G01X8364220Y-3305048D01*
G01X8367268Y-3314192D01*
G01X8373618Y-3320542D01*
G01X8382762Y-3323590D01*
G01X8389112Y-3323590D01*
G01X8398256Y-3320542D01*
G01X8404352Y-3314192D01*
G01X8407654Y-3305048D01*
G01X8407654Y-3258566D01*
G01X8437880Y-3271012D02*
G01X8443976Y-3267710D01*
G01X8453120Y-3258566D01*
G01X8453120Y-3323590D01*
G01X8486394Y-3274060D02*
G01X8486394Y-3271012D01*
G01X8489442Y-3264662D01*
G01X8492490Y-3261614D01*
G01X8498586Y-3258566D01*
G01X8511032Y-3258566D01*
G01X8517382Y-3261614D01*
G01X8520430Y-3264662D01*
G01X8523478Y-3271012D01*
G01X8523478Y-3277108D01*
G01X8520430Y-3283204D01*
G01X8514080Y-3292602D01*
G01X8483346Y-3323590D01*
G01X8526526Y-3323590D01*
G01X6569202Y-5458460D02*
G01X6566154Y-5452110D01*
G01X6559804Y-5446014D01*
G01X6553708Y-5442966D01*
G01X6541262Y-5442966D01*
G01X6535166Y-5446014D01*
G01X6528816Y-5452110D01*
G01X6525768Y-5458460D01*
G01X6522720Y-5467604D01*
G01X6522720Y-5483098D01*
G01X6525768Y-5492496D01*
G01X6528816Y-5498592D01*
G01X6535166Y-5504942D01*
G01X6541262Y-5507990D01*
G01X6553708Y-5507990D01*
G01X6559804Y-5504942D01*
G01X6566154Y-5498592D01*
G01X6569202Y-5492496D01*
G01X6599428Y-5455412D02*
G01X6605524Y-5452110D01*
G01X6614668Y-5442966D01*
G01X6614668Y-5507990D01*
G01X6442202Y-2054860D02*
G01X6439154Y-2048510D01*
G01X6432804Y-2042414D01*
G01X6426708Y-2039366D01*
G01X6414262Y-2039366D01*
G01X6408166Y-2042414D01*
G01X6401816Y-2048510D01*
G01X6398768Y-2054860D01*
G01X6395720Y-2064004D01*
G01X6395720Y-2079498D01*
G01X6398768Y-2088896D01*
G01X6401816Y-2094992D01*
G01X6408166Y-2101342D01*
G01X6414262Y-2104390D01*
G01X6426708Y-2104390D01*
G01X6432804Y-2101342D01*
G01X6439154Y-2094992D01*
G01X6442202Y-2088896D01*
G01X6475476Y-2054860D02*
G01X6475476Y-2051812D01*
G01X6478524Y-2045462D01*
G01X6481572Y-2042414D01*
G01X6487668Y-2039366D01*
G01X6500114Y-2039366D01*
G01X6506464Y-2042414D01*
G01X6509512Y-2045462D01*
G01X6512560Y-2051812D01*
G01X6512560Y-2057908D01*
G01X6509512Y-2064004D01*
G01X6503162Y-2073402D01*
G01X6472428Y-2104390D01*
G01X6515608Y-2104390D01*
G01X6330954Y-510380D02*
G01X6330954Y-575404D01*
G01X6330954Y-510380D02*
G01X6358894Y-510380D01*
G01X6368038Y-513428D01*
G01X6371086Y-516476D01*
G01X6374388Y-522826D01*
G01X6374388Y-528922D01*
G01X6371086Y-535018D01*
G01X6368038Y-538066D01*
G01X6358894Y-541368D01*
G01X6330954Y-541368D01*
G01X6352544Y-541368D02*
G01X6374388Y-575404D01*
G01X6404614Y-522826D02*
G01X6410710Y-519524D01*
G01X6419854Y-510380D01*
G01X6419854Y-575404D01*
G01X6487164Y-519524D02*
G01X6484116Y-513428D01*
G01X6474718Y-510380D01*
G01X6468622Y-510380D01*
G01X6459224Y-513428D01*
G01X6453128Y-522826D01*
G01X6450080Y-538066D01*
G01X6450080Y-553560D01*
G01X6453128Y-566006D01*
G01X6459224Y-572356D01*
G01X6468622Y-575404D01*
G01X6471670Y-575404D01*
G01X6480814Y-572356D01*
G01X6487164Y-566006D01*
G01X6490212Y-556862D01*
G01X6490212Y-553560D01*
G01X6487164Y-544416D01*
G01X6480814Y-538066D01*
G01X6471670Y-535018D01*
G01X6468622Y-535018D01*
G01X6459224Y-538066D01*
G01X6453128Y-544416D01*
G01X6450080Y-553560D01*
G01X2496820Y-1975866D02*
G01X2496820Y-2040890D01*
G01X2496820Y-1975866D02*
G01X2524760Y-1975866D01*
G01X2533904Y-1978914D01*
G01X2536952Y-1981962D01*
G01X2540254Y-1988312D01*
G01X2540254Y-1994408D01*
G01X2536952Y-2000504D01*
G01X2533904Y-2003552D01*
G01X2524760Y-2006854D01*
G01X2496820Y-2006854D01*
G01X2518410Y-2006854D02*
G01X2540254Y-2040890D01*
G01X2570480Y-1988312D02*
G01X2576576Y-1985010D01*
G01X2585720Y-1975866D01*
G01X2585720Y-2040890D01*
G01X2631186Y-1975866D02*
G01X2622042Y-1978914D01*
G01X2618994Y-1985010D01*
G01X2618994Y-1991360D01*
G01X2622042Y-1997456D01*
G01X2628138Y-2000504D01*
G01X2640584Y-2003552D01*
G01X2649982Y-2006854D01*
G01X2656078Y-2012950D01*
G01X2659126Y-2019046D01*
G01X2659126Y-2028444D01*
G01X2656078Y-2034540D01*
G01X2653030Y-2037842D01*
G01X2643632Y-2040890D01*
G01X2631186Y-2040890D01*
G01X2622042Y-2037842D01*
G01X2618994Y-2034540D01*
G01X2615946Y-2028444D01*
G01X2615946Y-2019046D01*
G01X2618994Y-2012950D01*
G01X2625090Y-2006854D01*
G01X2634488Y-2003552D01*
G01X2646680Y-2000504D01*
G01X2653030Y-1997456D01*
G01X2656078Y-1991360D01*
G01X2656078Y-1985010D01*
G01X2653030Y-1978914D01*
G01X2643632Y-1975866D01*
G01X2631186Y-1975866D01*
G01X1696720Y-1963166D02*
G01X1696720Y-2009648D01*
G01X1699768Y-2018792D01*
G01X1706118Y-2025142D01*
G01X1715262Y-2028190D01*
G01X1721612Y-2028190D01*
G01X1730756Y-2025142D01*
G01X1736852Y-2018792D01*
G01X1740154Y-2009648D01*
G01X1740154Y-1963166D01*
G01X1810512Y-1984756D02*
G01X1807464Y-1994154D01*
G01X1801114Y-2000250D01*
G01X1791970Y-2003298D01*
G01X1788922Y-2003298D01*
G01X1779524Y-2000250D01*
G01X1773428Y-1994154D01*
G01X1770380Y-1984756D01*
G01X1770380Y-1981708D01*
G01X1773428Y-1972310D01*
G01X1779524Y-1966214D01*
G01X1788922Y-1963166D01*
G01X1791970Y-1963166D01*
G01X1801114Y-1966214D01*
G01X1807464Y-1972310D01*
G01X1810512Y-1984756D01*
G01X1810512Y-2000250D01*
G01X1807464Y-2015744D01*
G01X1801114Y-2025142D01*
G01X1791970Y-2028190D01*
G01X1785620Y-2028190D01*
G01X1776476Y-2025142D01*
G01X1773428Y-2018792D01*
G01X6573520Y-4299966D02*
G01X6573520Y-4364990D01*
G01X6573520Y-4299966D02*
G01X6601460Y-4299966D01*
G01X6610604Y-4303014D01*
G01X6613652Y-4306062D01*
G01X6616954Y-4312412D01*
G01X6616954Y-4318508D01*
G01X6613652Y-4324604D01*
G01X6610604Y-4327652D01*
G01X6601460Y-4330954D01*
G01X6573520Y-4330954D01*
G01X6595110Y-4330954D02*
G01X6616954Y-4364990D01*
G01X6647180Y-4312412D02*
G01X6653276Y-4309110D01*
G01X6662420Y-4299966D01*
G01X6662420Y-4364990D01*
G01X6695694Y-4315460D02*
G01X6695694Y-4312412D01*
G01X6698742Y-4306062D01*
G01X6701790Y-4303014D01*
G01X6707886Y-4299966D01*
G01X6720332Y-4299966D01*
G01X6726682Y-4303014D01*
G01X6729730Y-4306062D01*
G01X6732778Y-4312412D01*
G01X6732778Y-4318508D01*
G01X6729730Y-4324604D01*
G01X6723380Y-4334002D01*
G01X6692646Y-4364990D01*
G01X6735826Y-4364990D01*
G01X8910320Y-3563366D02*
G01X8910320Y-3628390D01*
G01X8953754Y-3563366D02*
G01X8953754Y-3628390D01*
G01X8910320Y-3594354D02*
G01X8953754Y-3594354D01*
G01X9014714Y-3563366D02*
G01X8983980Y-3606546D01*
G01X9030208Y-3606546D01*
G01X9014714Y-3563366D02*
G01X9014714Y-3628390D01*
G01X8961120Y-1988566D02*
G01X8961120Y-2053590D01*
G01X9004554Y-1988566D02*
G01X9004554Y-2053590D01*
G01X8961120Y-2019554D02*
G01X9004554Y-2019554D01*
G01X9071864Y-1997710D02*
G01X9068816Y-1991614D01*
G01X9059418Y-1988566D01*
G01X9053322Y-1988566D01*
G01X9043924Y-1991614D01*
G01X9037828Y-2001012D01*
G01X9034780Y-2016252D01*
G01X9034780Y-2031746D01*
G01X9037828Y-2044192D01*
G01X9043924Y-2050542D01*
G01X9053322Y-2053590D01*
G01X9056370Y-2053590D01*
G01X9065514Y-2050542D01*
G01X9071864Y-2044192D01*
G01X9074912Y-2035048D01*
G01X9074912Y-2031746D01*
G01X9071864Y-2022602D01*
G01X9065514Y-2016252D01*
G01X9056370Y-2013204D01*
G01X9053322Y-2013204D01*
G01X9043924Y-2016252D01*
G01X9037828Y-2022602D01*
G01X9034780Y-2031746D01*
G54D12*
G01X121920Y-2312670D02*
G01X121920Y-2401316D01*
G01X121920Y-2312670D02*
G01X159766Y-2312670D01*
G01X172466Y-2316988D01*
G01X176530Y-2321306D01*
G01X180848Y-2329688D01*
G01X180848Y-2338070D01*
G01X176530Y-2346452D01*
G01X172466Y-2350770D01*
G01X159766Y-2355088D01*
G01X121920Y-2355088D01*
G01X151384Y-2355088D02*
G01X180848Y-2401316D01*
G01X216154Y-2312670D02*
G01X275082Y-2401316D01*
G01X275082Y-2312670D02*
G01X216154Y-2401316D01*
G01X156143Y-1993970D02*
G01X156143Y-2082616D01*
G01X126679Y-1993970D02*
G01X185607Y-1993970D01*
G01X220913Y-1993970D02*
G01X279841Y-2082616D01*
G01X279841Y-1993970D02*
G01X220913Y-2082616D01*
G01X9125966Y-5627370D02*
G01X9117584Y-5631688D01*
G01X9109202Y-5640070D01*
G01X9104884Y-5648452D01*
G01X9100820Y-5661152D01*
G01X9100820Y-5682234D01*
G01X9104884Y-5694934D01*
G01X9109202Y-5703316D01*
G01X9117584Y-5711952D01*
G01X9125966Y-5716016D01*
G01X9142984Y-5716016D01*
G01X9151366Y-5711952D01*
G01X9159748Y-5703316D01*
G01X9164066Y-5694934D01*
G01X9168130Y-5682234D01*
G01X9168130Y-5661152D01*
G01X9164066Y-5648452D01*
G01X9159748Y-5640070D01*
G01X9151366Y-5631688D01*
G01X9142984Y-5627370D01*
G01X9125966Y-5627370D01*
G01X9203436Y-5627370D02*
G01X9203436Y-5690870D01*
G01X9207500Y-5703316D01*
G01X9216136Y-5711952D01*
G01X9228582Y-5716016D01*
G01X9237218Y-5716016D01*
G01X9249664Y-5711952D01*
G01X9258300Y-5703316D01*
G01X9262364Y-5690870D01*
G01X9262364Y-5627370D01*
G01X9327134Y-5627370D02*
G01X9327134Y-5716016D01*
G01X9297670Y-5627370D02*
G01X9356598Y-5627370D01*
G01X9189720Y-1588770D02*
G01X9189720Y-1677416D01*
G01X9225026Y-1588770D02*
G01X9225026Y-1677416D01*
G01X9225026Y-1588770D02*
G01X9283954Y-1677416D01*
G01X9283954Y-1588770D02*
G01X9283954Y-1677416D01*
G01X9081643Y-4585970D02*
G01X9081643Y-4674616D01*
G01X9081643Y-4585970D02*
G01X9119489Y-4585970D01*
G01X9132189Y-4590288D01*
G01X9136253Y-4594606D01*
G01X9140571Y-4602988D01*
G01X9140571Y-4615688D01*
G01X9136253Y-4624070D01*
G01X9132189Y-4628388D01*
G01X9119489Y-4632452D01*
G01X9081643Y-4632452D01*
G01X9205341Y-4585970D02*
G01X9205341Y-4674616D01*
G01X9175877Y-4585970D02*
G01X9234805Y-4585970D01*
G01X9299575Y-4585970D02*
G01X9299575Y-4674616D01*
G01X9270111Y-4585970D02*
G01X9329039Y-4585970D01*
G01X9364345Y-4602988D02*
G01X9372727Y-4598670D01*
G01X9385427Y-4585970D01*
G01X9385427Y-4674616D01*
G01X9062720Y-3188970D02*
G01X9062720Y-3277616D01*
G01X9062720Y-3188970D02*
G01X9100566Y-3188970D01*
G01X9113266Y-3193288D01*
G01X9117330Y-3197606D01*
G01X9121648Y-3205988D01*
G01X9121648Y-3218688D01*
G01X9117330Y-3227070D01*
G01X9113266Y-3231388D01*
G01X9100566Y-3235452D01*
G01X9062720Y-3235452D01*
G01X9186418Y-3188970D02*
G01X9186418Y-3277616D01*
G01X9156954Y-3188970D02*
G01X9215882Y-3188970D01*
G01X9280652Y-3188970D02*
G01X9280652Y-3277616D01*
G01X9251188Y-3188970D02*
G01X9310116Y-3188970D01*
G01X9349486Y-3210052D02*
G01X9349486Y-3205988D01*
G01X9353804Y-3197606D01*
G01X9358122Y-3193288D01*
G01X9366504Y-3188970D01*
G01X9383268Y-3188970D01*
G01X9391650Y-3193288D01*
G01X9395968Y-3197606D01*
G01X9400286Y-3205988D01*
G01X9400286Y-3214370D01*
G01X9395968Y-3222752D01*
G01X9387586Y-3235452D01*
G01X9345422Y-3277616D01*
G01X9404350Y-3277616D01*
G36*
G01X200197Y-1294109D02*
G01X200197Y-1301079D01*
G01X331106Y-1301079D01*
G01X331106Y-1287139D01*
G01X272924Y-1287139D01*
G01X272924Y-1215624D01*
G01X258379Y-1215624D01*
G01X258379Y-1287139D01*
G01X200197Y-1287139D01*
G01X200197Y-1294109D01*
G37*
G36*
G01X218379Y-1322594D02*
G01X218379Y-1329564D01*
G01X312924Y-1329564D01*
G01X312924Y-1315624D01*
G01X218379Y-1315624D01*
G01X218379Y-1322594D01*
G37*
G36*
G01X236561Y-1351079D02*
G01X236561Y-1358048D01*
G01X294742Y-1358048D01*
G01X294742Y-1344109D01*
G01X236561Y-1344109D01*
G01X236561Y-1351079D01*
G37*
G36*
G01X187497Y-3084809D02*
G01X187497Y-3091779D01*
G01X318406Y-3091779D01*
G01X318406Y-3077839D01*
G01X260224Y-3077839D01*
G01X260224Y-3006324D01*
G01X245679Y-3006324D01*
G01X245679Y-3077839D01*
G01X187497Y-3077839D01*
G01X187497Y-3084809D01*
G37*
G36*
G01X205679Y-3113294D02*
G01X205679Y-3120264D01*
G01X300224Y-3120264D01*
G01X300224Y-3106324D01*
G01X205679Y-3106324D01*
G01X205679Y-3113294D01*
G37*
G36*
G01X223861Y-3141779D02*
G01X223861Y-3148748D01*
G01X282042Y-3148748D01*
G01X282042Y-3134809D01*
G01X223861Y-3134809D01*
G01X223861Y-3141779D01*
G37*
G36*
G01X9179097Y-2399009D02*
G01X9179097Y-2405979D01*
G01X9310006Y-2405979D01*
G01X9310006Y-2392039D01*
G01X9251824Y-2392039D01*
G01X9251824Y-2320524D01*
G01X9237279Y-2320524D01*
G01X9237279Y-2392039D01*
G01X9179097Y-2392039D01*
G01X9179097Y-2399009D01*
G37*
G36*
G01X9197279Y-2427494D02*
G01X9197279Y-2434464D01*
G01X9291824Y-2434464D01*
G01X9291824Y-2420524D01*
G01X9197279Y-2420524D01*
G01X9197279Y-2427494D01*
G37*
G36*
G01X9215461Y-2455979D02*
G01X9215461Y-2462948D01*
G01X9273642Y-2462948D01*
G01X9273642Y-2449009D01*
G01X9215461Y-2449009D01*
G01X9215461Y-2455979D01*
G37*
G36*
G01X9344197Y-4443709D02*
G01X9344197Y-4450679D01*
G01X9475106Y-4450679D01*
G01X9475106Y-4436739D01*
G01X9416924Y-4436739D01*
G01X9416924Y-4365224D01*
G01X9402379Y-4365224D01*
G01X9402379Y-4436739D01*
G01X9344197Y-4436739D01*
G01X9344197Y-4443709D01*
G37*
G36*
G01X9362379Y-4472194D02*
G01X9362379Y-4479164D01*
G01X9456924Y-4479164D01*
G01X9456924Y-4465224D01*
G01X9362379Y-4465224D01*
G01X9362379Y-4472194D01*
G37*
G36*
G01X9380561Y-4500679D02*
G01X9380561Y-4507648D01*
G01X9438742Y-4507648D01*
G01X9438742Y-4493709D01*
G01X9380561Y-4493709D01*
G01X9380561Y-4500679D01*
G37*
G36*
G01X9344197Y-3770609D02*
G01X9344197Y-3777579D01*
G01X9475106Y-3777579D01*
G01X9475106Y-3763639D01*
G01X9416924Y-3763639D01*
G01X9416924Y-3692124D01*
G01X9402379Y-3692124D01*
G01X9402379Y-3763639D01*
G01X9344197Y-3763639D01*
G01X9344197Y-3770609D01*
G37*
G36*
G01X9362379Y-3799094D02*
G01X9362379Y-3806064D01*
G01X9456924Y-3806064D01*
G01X9456924Y-3792124D01*
G01X9362379Y-3792124D01*
G01X9362379Y-3799094D01*
G37*
G36*
G01X9380561Y-3827579D02*
G01X9380561Y-3834548D01*
G01X9438742Y-3834548D01*
G01X9438742Y-3820609D01*
G01X9380561Y-3820609D01*
G01X9380561Y-3827579D01*
G37*
G36*
G01X9166397Y-6450309D02*
G01X9166397Y-6457279D01*
G01X9297306Y-6457279D01*
G01X9297306Y-6443339D01*
G01X9239124Y-6443339D01*
G01X9239124Y-6371824D01*
G01X9224579Y-6371824D01*
G01X9224579Y-6443339D01*
G01X9166397Y-6443339D01*
G01X9166397Y-6450309D01*
G37*
G36*
G01X9184579Y-6478794D02*
G01X9184579Y-6485764D01*
G01X9279124Y-6485764D01*
G01X9279124Y-6471824D01*
G01X9184579Y-6471824D01*
G01X9184579Y-6478794D01*
G37*
G36*
G01X9202761Y-6507279D02*
G01X9202761Y-6514248D01*
G01X9260942Y-6514248D01*
G01X9260942Y-6500309D01*
G01X9202761Y-6500309D01*
G01X9202761Y-6507279D01*
G37*
G04 Text End*

G04 PolygonModel Start*
G54D13*
G01X372444Y-2978445D02*
G01X122444Y-2978445D01*
G01X372444Y-2430445D02*
G01X372444Y-2978445D01*
G01X122444Y-2430445D02*
G01X372444Y-2430445D01*
G01X122444Y-2978445D02*
G01X122444Y-2430445D01*
G01X135144Y-1416998D02*
G01X385144Y-1416998D01*
G01X135144Y-1964998D02*
G01X135144Y-1416998D01*
G01X385144Y-1964998D02*
G01X135144Y-1964998D01*
G01X385144Y-1416998D02*
G01X385144Y-1964998D01*
G01X9318071Y-4548914D02*
G01X9068072Y-4548914D01*
G01X9318071Y-4000915D02*
G01X9318071Y-4548914D01*
G01X9068072Y-4000915D02*
G01X9318071Y-4000915D01*
G01X9068072Y-4548914D02*
G01X9068072Y-4000915D01*
G01X9318071Y-3875814D02*
G01X9068072Y-3875814D01*
G01X9318071Y-3327815D02*
G01X9318071Y-3875814D01*
G01X9068072Y-3327815D02*
G01X9318071Y-3327815D01*
G01X9068072Y-3875814D02*
G01X9068072Y-3327815D01*
G01X9357898Y-6331900D02*
G01X9107899Y-6331900D01*
G01X9357898Y-5783900D02*
G01X9357898Y-6331900D01*
G01X9107899Y-5783900D02*
G01X9357898Y-5783900D01*
G01X9107899Y-6331900D02*
G01X9107899Y-5783900D01*
G01X9357898Y-2280600D02*
G01X9107899Y-2280600D01*
G01X9357898Y-1732600D02*
G01X9357898Y-2280600D01*
G01X9107899Y-1732600D02*
G01X9357898Y-1732600D01*
G01X9107899Y-2280600D02*
G01X9107899Y-1732600D01*
G01X2229169Y-4341534D02*
G01X2199705Y-4341155D01*
G01X2427009Y-4343660D02*
G01X2394456Y-4343660D01*
G01X2402026Y-4280906D02*
G03X2409211Y-4046020I-89504J120291D01*
G01X2218915Y-4043289D02*
G03X2215912Y-4275478I93607J-117324D01*
G01X2427009Y-4343660D02*
G03X2375823Y-3954204I-114488J183044D01*
G01X2249021Y-3957414D02*
G03X2199705Y-4341155I63498J-203200D01*
G01X897685Y-2696825D02*
G01X897685Y-2458065D01*
G01X897685Y-2458065D02*
G01X1527605Y-2458065D01*
G01X1527605Y-2458065D02*
G01X1527605Y-2696825D01*
G01X1527605Y-2696825D02*
G01X897685Y-2696825D01*
G01X3244701Y-1084674D02*
G01X3005941Y-1084674D01*
G01X3005941Y-1084674D02*
G01X3005941Y-454754D01*
G01X3005941Y-454754D02*
G01X3244701Y-454754D01*
G01X3244701Y-454754D02*
G01X3244701Y-1084674D01*
G01X4408161Y-5923280D02*
G01X4408161Y-5684520D01*
G01X4408161Y-5684520D02*
G01X5038081Y-5684520D01*
G01X5038081Y-5684520D02*
G01X5038081Y-5923280D01*
G01X5038081Y-5923280D02*
G01X4408161Y-5923280D01*
G01X6313174Y-2997294D02*
G01X6313174Y-2758534D01*
G01X6313174Y-2758534D02*
G01X6943094Y-2758534D01*
G01X6943094Y-2758534D02*
G01X6943094Y-2997294D01*
G01X6943094Y-2997294D02*
G01X6313174Y-2997294D01*
G01X6569561Y-4266959D02*
G01X6569561Y-4028199D01*
G01X6569561Y-4028199D02*
G01X7199481Y-4028199D01*
G01X7199481Y-4028199D02*
G01X7199481Y-4266959D01*
G01X7199481Y-4266959D02*
G01X6569561Y-4266959D01*
G01X6569561Y-3759294D02*
G01X6569561Y-3520534D01*
G01X6569561Y-3520534D02*
G01X7199481Y-3520534D01*
G01X7199481Y-3520534D02*
G01X7199481Y-3759294D01*
G01X7199481Y-3759294D02*
G01X6569561Y-3759294D01*
G01X5899621Y-5676900D02*
G01X5629421Y-5676900D01*
G01X5629421Y-6184900D02*
G01X5899621Y-6184900D01*
G01X5599421Y-6154900D02*
G01X5599421Y-5706900D01*
G01X5929621Y-5706900D02*
G01X5929621Y-6154900D01*
G01X5929621Y-5706900D02*
G03X5899649Y-5676900I-31350J-1349D01*
G01X5599421Y-6154900D02*
G03X5629393Y-6184900I31350J1349D01*
G01X5899621Y-6184900D02*
G03X5929621Y-6154928I-1349J31350D01*
G01X5629421Y-5676900D02*
G03X5599421Y-5706872I1349J-31350D01*
G01X2505561Y-3708494D02*
G01X2505561Y-3469734D01*
G01X2505561Y-3469734D02*
G01X3135481Y-3469734D01*
G01X3135481Y-3469734D02*
G01X3135481Y-3708494D01*
G01X3135481Y-3708494D02*
G01X2505561Y-3708494D01*
G01X6943094Y-624934D02*
G01X6943094Y-863694D01*
G01X6943094Y-863694D02*
G01X6313174Y-863694D01*
G01X6313174Y-863694D02*
G01X6313174Y-624934D01*
G01X6313174Y-624934D02*
G01X6943094Y-624934D01*
G01X2396341Y-454754D02*
G01X2635101Y-454754D01*
G01X2635101Y-454754D02*
G01X2635101Y-1084674D01*
G01X2635101Y-1084674D02*
G01X2396341Y-1084674D01*
G01X2396341Y-1084674D02*
G01X2396341Y-454754D01*
G01X2498480Y-1937378D02*
G01X2498480Y-1698618D01*
G01X2498480Y-1698618D02*
G01X3128400Y-1698618D01*
G01X3128400Y-1698618D02*
G01X3128400Y-1937378D01*
G01X3128400Y-1937378D02*
G01X2498480Y-1937378D01*
G01X7928321Y-5543874D02*
G01X7578320Y-5543874D01*
G01X7578320Y-5543874D02*
G01X7578320Y-6543872D01*
G01X7578320Y-6543872D02*
G01X7928321Y-6543872D01*
G01X8528320Y-5543874D02*
G01X8878322Y-5543874D01*
G01X8878322Y-5543874D02*
G01X8878322Y-6543872D01*
G01X8878322Y-6543872D02*
G01X8528320Y-6543872D01*
G01X8528320Y-5343872D02*
G01X8528320Y-6743874D01*
G01X8528320Y-6743874D02*
G01X7928321Y-6743874D01*
G01X7928321Y-6743874D02*
G01X7928321Y-5343872D01*
G01X7928321Y-5343872D02*
G01X8528320Y-5343872D01*
G01X7929601Y-1506601D02*
G01X7579599Y-1506601D01*
G01X7579599Y-1506601D02*
G01X7579599Y-2506599D01*
G01X7579599Y-2506599D02*
G01X7929601Y-2506599D01*
G01X8529599Y-1506601D02*
G01X8879601Y-1506601D01*
G01X8879601Y-1506601D02*
G01X8879601Y-2506599D01*
G01X8879601Y-2506599D02*
G01X8529599Y-2506599D01*
G01X8529599Y-1306599D02*
G01X8529599Y-2706601D01*
G01X8529599Y-2706601D02*
G01X7929601Y-2706601D01*
G01X7929601Y-2706601D02*
G01X7929601Y-1306599D01*
G01X7929601Y-1306599D02*
G01X8529599Y-1306599D01*
G54D14*
G01X3712500Y-205900D02*
G01X3712500Y-5305890D01*
G01X3712500Y-472600D02*
G01X4013200Y-472600D01*
G01X4013200Y-472600D02*
G01X4013200Y-205900D01*
G01X5812496Y-5305890D02*
G01X3712500Y-5305890D01*
G01X3712500Y-205900D02*
G01X5812496Y-205900D01*
G01X5812496Y-205900D02*
G01X5812496Y-5305890D01*
G54D10*
G01X1808661Y-1934434D02*
G01X1292381Y-1934434D01*
G01X1292381Y-1934434D02*
G01X1292381Y-1459195D01*
G01X1292381Y-1459195D02*
G01X1808661Y-1459195D01*
G01X1808661Y-1459195D02*
G01X1808661Y-1934434D01*
G01X1469272Y-1934434D02*
G02X1631771Y-1934434I81250J0D01*
G01X2295343Y-2474293D02*
G01X2811624Y-2474293D01*
G01X2811624Y-2474293D02*
G01X2811624Y-2949532D01*
G01X2811624Y-2949532D02*
G01X2295343Y-2949532D01*
G01X2295343Y-2949532D02*
G01X2295343Y-2474293D01*
G01X2634733Y-2474293D02*
G02X2472234Y-2474293I-81250J0D01*
G01X8010681Y-4037295D02*
G01X8526961Y-4037295D01*
G01X8526961Y-4037295D02*
G01X8526961Y-4512534D01*
G01X8526961Y-4512534D02*
G01X8010681Y-4512534D01*
G01X8010681Y-4512534D02*
G01X8010681Y-4037295D01*
G01X8350071Y-4037295D02*
G02X8187572Y-4037295I-81250J0D01*
G01X8010681Y-3364195D02*
G01X8526961Y-3364195D01*
G01X8526961Y-3364195D02*
G01X8526961Y-3839434D01*
G01X8526961Y-3839434D02*
G01X8010681Y-3839434D01*
G01X8010681Y-3839434D02*
G01X8010681Y-3364195D01*
G01X8350071Y-3364195D02*
G02X8187572Y-3364195I-81250J0D01*
G36*
G01X6388100Y-5969000D02*
G01X6388100Y-5651500D01*
G01X6387462Y-5652138D01*
G03X6324600Y-5803900I151760J-151762D01*
G01X6324600Y-5820959D01*
G03X6375400Y-5943600I173441J0D01*
G01X6388100Y-5969000D01*
G37*
G36*
G01X6498600Y-5903900D02*
G01X6428600Y-5903900D01*
G01X6428600Y-5883900D01*
G01X6508600Y-5883900D01*
G01X6508600Y-5903900D01*
G01X6498600Y-5903900D01*
G37*
G36*
G01X6768600Y-5893902D02*
G01X6698600Y-5893902D01*
G01X6698600Y-5873902D01*
G01X6778600Y-5873902D01*
G01X6778600Y-5893902D01*
G01X6768600Y-5893902D01*
G37*
G36*
G01X6748600Y-5853902D02*
G01X6748600Y-5923900D01*
G01X6728597Y-5923900D01*
G01X6728597Y-5843900D01*
G01X6748600Y-5843900D01*
G01X6748600Y-5853902D01*
G37*
G36*
G01X6261100Y-1917700D02*
G01X6261100Y-1600200D01*
G01X6260462Y-1600838D01*
G03X6197600Y-1752600I151760J-151762D01*
G01X6197600Y-1769659D01*
G03X6248400Y-1892300I173441J0D01*
G01X6261100Y-1917700D01*
G37*
G36*
G01X6371600Y-1852600D02*
G01X6301600Y-1852600D01*
G01X6301600Y-1832600D01*
G01X6381600Y-1832600D01*
G01X6381600Y-1852600D01*
G01X6371600Y-1852600D01*
G37*
G36*
G01X6641600Y-1842602D02*
G01X6571600Y-1842602D01*
G01X6571600Y-1822602D01*
G01X6651600Y-1822602D01*
G01X6651600Y-1842602D01*
G01X6641600Y-1842602D01*
G37*
G36*
G01X6621600Y-1802602D02*
G01X6621600Y-1872600D01*
G01X6601597Y-1872600D01*
G01X6601597Y-1792600D01*
G01X6621600Y-1792600D01*
G01X6621600Y-1802602D01*
G37*

G04 Circle Start*
G54D16*
G01X1916510Y-1945252D02*
G03X1946533Y-1945252I15011J0D01*
G03X1916510Y-1945252I-15011J0D01*
G01X2157472Y-2463475D02*
G03X2187495Y-2463475I15011J0D01*
G03X2157472Y-2463475I-15011J0D01*
G01X7872810Y-4026477D02*
G03X7902833Y-4026477I15011J0D01*
G03X7872810Y-4026477I-15011J0D01*
G01X7872810Y-3353377D02*
G03X7902833Y-3353377I15011J0D01*
G03X7872810Y-3353377I-15011J0D01*
G54D13*
G01X6328588Y-5803900D02*
G03X6828612Y-5803900I250012J0D01*
G03X6328588Y-5803900I-250012J0D01*
G01X6201588Y-1752600D02*
G03X6701612Y-1752600I250012J0D01*
G03X6201588Y-1752600I-250012J0D01*
G04 Circle End*

M02*

